<svg version="1.1" xmlns="http://www.w3.org/2000/svg" xmlns:xlink="http://www.w3.org/1999/xlink" width="668" height="524"><defs/><g><text fill="#eeeeee" stroke="none" font-family="Arial" font-size="24px" font-style="normal" font-weight="normal" text-decoration="none" x="0" y="0">UNREGISTERED</text><text fill="#eeeeee" stroke="none" font-family="Arial" font-size="24px" font-style="normal" font-weight="normal" text-decoration="none" x="0" y="30">UNREGISTERED</text><text fill="#eeeeee" stroke="none" font-family="Arial" font-size="24px" font-style="normal" font-weight="normal" text-decoration="none" x="0" y="60">UNREGISTERED</text><text fill="#eeeeee" stroke="none" font-family="Arial" font-size="24px" font-style="normal" font-weight="normal" text-decoration="none" x="0" y="90">UNREGISTERED</text><text fill="#eeeeee" stroke="none" font-family="Arial" font-size="24px" font-style="normal" font-weight="normal" text-decoration="none" x="0" y="120">UNREGISTERED</text><text fill="#eeeeee" stroke="none" font-family="Arial" font-size="24px" font-style="normal" font-weight="normal" text-decoration="none" x="0" y="150">UNREGISTERED</text><text fill="#eeeeee" stroke="none" font-family="Arial" font-size="24px" font-style="normal" font-weight="normal" text-decoration="none" x="0" y="180">UNREGISTERED</text><text fill="#eeeeee" stroke="none" font-family="Arial" font-size="24px" font-style="normal" font-weight="normal" text-decoration="none" x="0" y="210">UNREGISTERED</text><text fill="#eeeeee" stroke="none" font-family="Arial" font-size="24px" font-style="normal" font-weight="normal" text-decoration="none" x="0" y="240">UNREGISTERED</text><text fill="#eeeeee" stroke="none" font-family="Arial" font-size="24px" font-style="normal" font-weight="normal" text-decoration="none" x="0" y="270">UNREGISTERED</text><text fill="#eeeeee" stroke="none" font-family="Arial" font-size="24px" font-style="normal" font-weight="normal" text-decoration="none" x="0" y="300">UNREGISTERED</text><text fill="#eeeeee" stroke="none" font-family="Arial" font-size="24px" font-style="normal" font-weight="normal" text-decoration="none" x="0" y="330">UNREGISTERED</text><text fill="#eeeeee" stroke="none" font-family="Arial" font-size="24px" font-style="normal" font-weight="normal" text-decoration="none" x="0" y="360">UNREGISTERED</text><text fill="#eeeeee" stroke="none" font-family="Arial" font-size="24px" font-style="normal" font-weight="normal" text-decoration="none" x="0" y="390">UNREGISTERED</text><text fill="#eeeeee" stroke="none" font-family="Arial" font-size="24px" font-style="normal" font-weight="normal" text-decoration="none" x="0" y="420">UNREGISTERED</text><text fill="#eeeeee" stroke="none" font-family="Arial" font-size="24px" font-style="normal" font-weight="normal" text-decoration="none" x="0" y="450">UNREGISTERED</text><text fill="#eeeeee" stroke="none" font-family="Arial" font-size="24px" font-style="normal" font-weight="normal" text-decoration="none" x="0" y="480">UNREGISTERED</text><text fill="#eeeeee" stroke="none" font-family="Arial" font-size="24px" font-style="normal" font-weight="normal" text-decoration="none" x="0" y="510">UNREGISTERED</text><text fill="#eeeeee" stroke="none" font-family="Arial" font-size="24px" font-style="normal" font-weight="normal" text-decoration="none" x="200" y="0">UNREGISTERED</text><text fill="#eeeeee" stroke="none" font-family="Arial" font-size="24px" font-style="normal" font-weight="normal" text-decoration="none" x="200" y="30">UNREGISTERED</text><text fill="#eeeeee" stroke="none" font-family="Arial" font-size="24px" font-style="normal" font-weight="normal" text-decoration="none" x="200" y="60">UNREGISTERED</text><text fill="#eeeeee" stroke="none" font-family="Arial" font-size="24px" font-style="normal" font-weight="normal" text-decoration="none" x="200" y="90">UNREGISTERED</text><text fill="#eeeeee" stroke="none" font-family="Arial" font-size="24px" font-style="normal" font-weight="normal" text-decoration="none" x="200" y="120">UNREGISTERED</text><text fill="#eeeeee" stroke="none" font-family="Arial" font-size="24px" font-style="normal" font-weight="normal" text-decoration="none" x="200" y="150">UNREGISTERED</text><text fill="#eeeeee" stroke="none" font-family="Arial" font-size="24px" font-style="normal" font-weight="normal" text-decoration="none" x="200" y="180">UNREGISTERED</text><text fill="#eeeeee" stroke="none" font-family="Arial" font-size="24px" font-style="normal" font-weight="normal" text-decoration="none" x="200" y="210">UNREGISTERED</text><text fill="#eeeeee" stroke="none" font-family="Arial" font-size="24px" font-style="normal" font-weight="normal" text-decoration="none" x="200" y="240">UNREGISTERED</text><text fill="#eeeeee" stroke="none" font-family="Arial" font-size="24px" font-style="normal" font-weight="normal" text-decoration="none" x="200" y="270">UNREGISTERED</text><text fill="#eeeeee" stroke="none" font-family="Arial" font-size="24px" font-style="normal" font-weight="normal" text-decoration="none" x="200" y="300">UNREGISTERED</text><text fill="#eeeeee" stroke="none" font-family="Arial" font-size="24px" font-style="normal" font-weight="normal" text-decoration="none" x="200" y="330">UNREGISTERED</text><text fill="#eeeeee" stroke="none" font-family="Arial" font-size="24px" font-style="normal" font-weight="normal" text-decoration="none" x="200" y="360">UNREGISTERED</text><text fill="#eeeeee" stroke="none" font-family="Arial" font-size="24px" font-style="normal" font-weight="normal" text-decoration="none" x="200" y="390">UNREGISTERED</text><text fill="#eeeeee" stroke="none" font-family="Arial" font-size="24px" font-style="normal" font-weight="normal" text-decoration="none" x="200" y="420">UNREGISTERED</text><text fill="#eeeeee" stroke="none" font-family="Arial" font-size="24px" font-style="normal" font-weight="normal" text-decoration="none" x="200" y="450">UNREGISTERED</text><text fill="#eeeeee" stroke="none" font-family="Arial" font-size="24px" font-style="normal" font-weight="normal" text-decoration="none" x="200" y="480">UNREGISTERED</text><text fill="#eeeeee" stroke="none" font-family="Arial" font-size="24px" font-style="normal" font-weight="normal" text-decoration="none" x="200" y="510">UNREGISTERED</text><text fill="#eeeeee" stroke="none" font-family="Arial" font-size="24px" font-style="normal" font-weight="normal" text-decoration="none" x="400" y="0">UNREGISTERED</text><text fill="#eeeeee" stroke="none" font-family="Arial" font-size="24px" font-style="normal" font-weight="normal" text-decoration="none" x="400" y="30">UNREGISTERED</text><text fill="#eeeeee" stroke="none" font-family="Arial" font-size="24px" font-style="normal" font-weight="normal" text-decoration="none" x="400" y="60">UNREGISTERED</text><text fill="#eeeeee" stroke="none" font-family="Arial" font-size="24px" font-style="normal" font-weight="normal" text-decoration="none" x="400" y="90">UNREGISTERED</text><text fill="#eeeeee" stroke="none" font-family="Arial" font-size="24px" font-style="normal" font-weight="normal" text-decoration="none" x="400" y="120">UNREGISTERED</text><text fill="#eeeeee" stroke="none" font-family="Arial" font-size="24px" font-style="normal" font-weight="normal" text-decoration="none" x="400" y="150">UNREGISTERED</text><text fill="#eeeeee" stroke="none" font-family="Arial" font-size="24px" font-style="normal" font-weight="normal" text-decoration="none" x="400" y="180">UNREGISTERED</text><text fill="#eeeeee" stroke="none" font-family="Arial" font-size="24px" font-style="normal" font-weight="normal" text-decoration="none" x="400" y="210">UNREGISTERED</text><text fill="#eeeeee" stroke="none" font-family="Arial" font-size="24px" font-style="normal" font-weight="normal" text-decoration="none" x="400" y="240">UNREGISTERED</text><text fill="#eeeeee" stroke="none" font-family="Arial" font-size="24px" font-style="normal" font-weight="normal" text-decoration="none" x="400" y="270">UNREGISTERED</text><text fill="#eeeeee" stroke="none" font-family="Arial" font-size="24px" font-style="normal" font-weight="normal" text-decoration="none" x="400" y="300">UNREGISTERED</text><text fill="#eeeeee" stroke="none" font-family="Arial" font-size="24px" font-style="normal" font-weight="normal" text-decoration="none" x="400" y="330">UNREGISTERED</text><text fill="#eeeeee" stroke="none" font-family="Arial" font-size="24px" font-style="normal" font-weight="normal" text-decoration="none" x="400" y="360">UNREGISTERED</text><text fill="#eeeeee" stroke="none" font-family="Arial" font-size="24px" font-style="normal" font-weight="normal" text-decoration="none" x="400" y="390">UNREGISTERED</text><text fill="#eeeeee" stroke="none" font-family="Arial" font-size="24px" font-style="normal" font-weight="normal" text-decoration="none" x="400" y="420">UNREGISTERED</text><text fill="#eeeeee" stroke="none" font-family="Arial" font-size="24px" font-style="normal" font-weight="normal" text-decoration="none" x="400" y="450">UNREGISTERED</text><text fill="#eeeeee" stroke="none" font-family="Arial" font-size="24px" font-style="normal" font-weight="normal" text-decoration="none" x="400" y="480">UNREGISTERED</text><text fill="#eeeeee" stroke="none" font-family="Arial" font-size="24px" font-style="normal" font-weight="normal" text-decoration="none" x="400" y="510">UNREGISTERED</text><text fill="#eeeeee" stroke="none" font-family="Arial" font-size="24px" font-style="normal" font-weight="normal" text-decoration="none" x="600" y="0">UNREGISTERED</text><text fill="#eeeeee" stroke="none" font-family="Arial" font-size="24px" font-style="normal" font-weight="normal" text-decoration="none" x="600" y="30">UNREGISTERED</text><text fill="#eeeeee" stroke="none" font-family="Arial" font-size="24px" font-style="normal" font-weight="normal" text-decoration="none" x="600" y="60">UNREGISTERED</text><text fill="#eeeeee" stroke="none" font-family="Arial" font-size="24px" font-style="normal" font-weight="normal" text-decoration="none" x="600" y="90">UNREGISTERED</text><text fill="#eeeeee" stroke="none" font-family="Arial" font-size="24px" font-style="normal" font-weight="normal" text-decoration="none" x="600" y="120">UNREGISTERED</text><text fill="#eeeeee" stroke="none" font-family="Arial" font-size="24px" font-style="normal" font-weight="normal" text-decoration="none" x="600" y="150">UNREGISTERED</text><text fill="#eeeeee" stroke="none" font-family="Arial" font-size="24px" font-style="normal" font-weight="normal" text-decoration="none" x="600" y="180">UNREGISTERED</text><text fill="#eeeeee" stroke="none" font-family="Arial" font-size="24px" font-style="normal" font-weight="normal" text-decoration="none" x="600" y="210">UNREGISTERED</text><text fill="#eeeeee" stroke="none" font-family="Arial" font-size="24px" font-style="normal" font-weight="normal" text-decoration="none" x="600" y="240">UNREGISTERED</text><text fill="#eeeeee" stroke="none" font-family="Arial" font-size="24px" font-style="normal" font-weight="normal" text-decoration="none" x="600" y="270">UNREGISTERED</text><text fill="#eeeeee" stroke="none" font-family="Arial" font-size="24px" font-style="normal" font-weight="normal" text-decoration="none" x="600" y="300">UNREGISTERED</text><text fill="#eeeeee" stroke="none" font-family="Arial" font-size="24px" font-style="normal" font-weight="normal" text-decoration="none" x="600" y="330">UNREGISTERED</text><text fill="#eeeeee" stroke="none" font-family="Arial" font-size="24px" font-style="normal" font-weight="normal" text-decoration="none" x="600" y="360">UNREGISTERED</text><text fill="#eeeeee" stroke="none" font-family="Arial" font-size="24px" font-style="normal" font-weight="normal" text-decoration="none" x="600" y="390">UNREGISTERED</text><text fill="#eeeeee" stroke="none" font-family="Arial" font-size="24px" font-style="normal" font-weight="normal" text-decoration="none" x="600" y="420">UNREGISTERED</text><text fill="#eeeeee" stroke="none" font-family="Arial" font-size="24px" font-style="normal" font-weight="normal" text-decoration="none" x="600" y="450">UNREGISTERED</text><text fill="#eeeeee" stroke="none" font-family="Arial" font-size="24px" font-style="normal" font-weight="normal" text-decoration="none" x="600" y="480">UNREGISTERED</text><text fill="#eeeeee" stroke="none" font-family="Arial" font-size="24px" font-style="normal" font-weight="normal" text-decoration="none" x="600" y="510">UNREGISTERED</text><g transform="translate(-342,-78) scale(1,1)"><rect fill="#C0C0C0" stroke="none" x="503" y="95" width="504" height="504" opacity="0.2"/></g><g transform="translate(-342,-78) scale(1,1)"><rect fill="#ffffff" stroke="none" x="496" y="88" width="504" height="504"/></g><g transform="translate(-342,-78) scale(1,1)"><path fill="none" stroke="#000000" d="M 496 88 L 1000 88 L 1000 592 L 496 592 L 496 88 Z Z" stroke-miterlimit="10"/></g><g transform="translate(-342,-78) scale(1,1)"><g><path fill="none" stroke="none"/><text fill="#000000" stroke="none" font-family="Arial" font-size="13px" font-style="normal" font-weight="bold" text-decoration="none" x="700.675048828125" y="107.5">Menu Javsmash</text></g></g><g transform="translate(-342,-78) scale(1,1)"><path fill="#ffffff" stroke="none" d="M 379.3025454545455 357.93 C 379.3025454545455 350.788957536 384.9873888558546 345 392 345 C 399.0126111441454 345 404.6974545454545 350.788957536 404.6974545454545 357.93 C 404.6974545454545 365.071042464 399.0126111441454 370.86 392 370.86 C 384.9873888558546 370.86 379.3025454545455 365.071042464 379.3025454545455 357.93 Z"/></g><g transform="translate(-342,-78) scale(1,1)"><path fill="none" stroke="#000000" d="M 379.3025454545455 357.93 C 379.3025454545455 350.788957536 384.9873888558546 345 392 345 C 399.0126111441454 345 404.6974545454545 350.788957536 404.6974545454545 357.93 C 404.6974545454545 365.071042464 399.0126111441454 370.86 392 370.86 C 384.9873888558546 370.86 379.3025454545455 365.071042464 379.3025454545455 357.93 Z" stroke-miterlimit="10"/></g><g transform="translate(-342,-78) scale(1,1)"><path fill="none" stroke="#000000" d="M 392 370.86 L 392 396.14" stroke-miterlimit="10"/></g><g transform="translate(-342,-78) scale(1,1)"><path fill="none" stroke="#000000" d="M 378.5556363636364 380.34000000000003 L 405.4443636363636 380.34000000000003" stroke-miterlimit="10"/></g><g transform="translate(-342,-78) scale(1,1)"><path fill="none" stroke="#000000" d="M 392 396.14 L 373.32727272727277 422" stroke-miterlimit="10"/></g><g transform="translate(-342,-78) scale(1,1)"><path fill="none" stroke="#000000" d="M 392 396.14 L 410.67272727272723 422" stroke-miterlimit="10"/></g><g transform="translate(-342,-78) scale(1,1)"><g><path fill="none" stroke="none"/><text fill="#000000" stroke="none" font-family="Arial" font-size="13px" font-style="normal" font-weight="bold" text-decoration="none" x="372.12548828125" y="442.5">Joueur</text></g></g><g transform="translate(-342,-78) scale(1,1)"><path fill="#C0C0C0" stroke="none" d="M 711 358.5 C 711 345.5213072 761.5918176 335 824 335 C 886.4081824 335 937 345.5213072 937 358.5 C 937 371.4786928 886.4081824 382 824 382 C 761.5918176 382 711 371.4786928 711 358.5 Z" opacity="0.2"/></g><g transform="translate(-342,-78) scale(1,1)"><path fill="#ffffff" stroke="none" d="M 704 351.5 C 704 338.5213072 754.5918176 328 817 328 C 879.4081824 328 930 338.5213072 930 351.5 C 930 364.4786928 879.4081824 375 817 375 C 754.5918176 375 704 364.4786928 704 351.5 Z"/></g><g transform="translate(-342,-78) scale(1,1)"><path fill="none" stroke="#000000" d="M 704 351.5 C 704 338.5213072 754.5918176 328 817 328 C 879.4081824 328 930 338.5213072 930 351.5 C 930 364.4786928 879.4081824 375 817 375 C 754.5918176 375 704 364.4786928 704 351.5 Z" stroke-miterlimit="10"/></g><g transform="translate(-342,-78) scale(1,1)"><g><path fill="none" stroke="none"/><text fill="#000000" stroke="none" font-family="Arial" font-size="13px" font-style="normal" font-weight="bold" text-decoration="none" x="746.188720703125" y="358.5">Accéder aux paramètres</text></g></g><g transform="translate(-342,-78) scale(1,1)"><path fill="#C0C0C0" stroke="none" d="M 727 230.5 C 727 217.5213072 766.3989376 207 815 207 C 863.6010624 207 903 217.5213072 903 230.5 C 903 243.4786928 863.6010624 254 815 254 C 766.3989376 254 727 243.4786928 727 230.5 Z" opacity="0.2"/></g><g transform="translate(-342,-78) scale(1,1)"><path fill="#ffffff" stroke="none" d="M 720 223.5 C 720 210.5213072 759.3989376 200 808 200 C 856.6010624 200 896 210.5213072 896 223.5 C 896 236.4786928 856.6010624 247 808 247 C 759.3989376 247 720 236.4786928 720 223.5 Z"/></g><g transform="translate(-342,-78) scale(1,1)"><path fill="none" stroke="#000000" d="M 720 223.5 C 720 210.5213072 759.3989376 200 808 200 C 856.6010624 200 896 210.5213072 896 223.5 C 896 236.4786928 856.6010624 247 808 247 C 759.3989376 247 720 236.4786928 720 223.5 Z" stroke-miterlimit="10"/></g><g transform="translate(-342,-78) scale(1,1)"><g><path fill="none" stroke="none"/><text fill="#000000" stroke="none" font-family="Arial" font-size="13px" font-style="normal" font-weight="bold" text-decoration="none" x="774.405029296875" y="230.5">Paramètres</text></g></g><g transform="translate(-342,-78) scale(1,1)"><path fill="#C0C0C0" stroke="none" d="M 727 486.5 C 727 473.5213072 766.3989376 463 815 463 C 863.6010624 463 903 473.5213072 903 486.5 C 903 499.4786928 863.6010624 510 815 510 C 766.3989376 510 727 499.4786928 727 486.5 Z" opacity="0.2"/></g><g transform="translate(-342,-78) scale(1,1)"><path fill="#ffffff" stroke="none" d="M 720 479.5 C 720 466.5213072 759.3989376 456 808 456 C 856.6010624 456 896 466.5213072 896 479.5 C 896 492.4786928 856.6010624 503 808 503 C 759.3989376 503 720 492.4786928 720 479.5 Z"/></g><g transform="translate(-342,-78) scale(1,1)"><path fill="none" stroke="#000000" d="M 720 479.5 C 720 466.5213072 759.3989376 456 808 456 C 856.6010624 456 896 466.5213072 896 479.5 C 896 492.4786928 856.6010624 503 808 503 C 759.3989376 503 720 492.4786928 720 479.5 Z" stroke-miterlimit="10"/></g><g transform="translate(-342,-78) scale(1,1)"><g><path fill="none" stroke="none"/><text fill="#000000" stroke="none" font-family="Arial" font-size="13px" font-style="normal" font-weight="bold" text-decoration="none" x="788.49365234375" y="486.5">Quitter</text></g></g><g transform="translate(-342,-78) scale(1,1)"><path fill="none" stroke="#000000" d="M 433 392 L 664 368 L 703 364" stroke-miterlimit="10"/></g><g transform="translate(-342,-78) scale(1,1)"><path fill="none" stroke="#000000" d="M 693.3198520059386 369.2244363153426 L 703 364 L 692.4608673640539 360.84933605696585" stroke-miterlimit="10"/></g><g transform="translate(-342,-78) scale(1,1)"><path fill="none" stroke="#000000" d="M 433 409 L 688 488 L 719 486" stroke-miterlimit="10"/></g><g transform="translate(-342,-78) scale(1,1)"><path fill="none" stroke="#000000" d="M 709.1294278951647 490.85508046516696 L 719 486 L 708.5873912103542 482.45351185060605" stroke-miterlimit="10"/></g><g transform="translate(-342,-78) scale(1,1)"><path fill="none" stroke="#000000" d="M 433 372 L 680 224 L 719 224" stroke-miterlimit="10"/></g><g transform="translate(-342,-78) scale(1,1)"><path fill="none" stroke="#000000" d="M 708.8373251423759 228.209517756016 L 719 224 L 708.8373251423758 219.790482243984" stroke-miterlimit="10"/></g></g></svg>