<svg version="1.1" xmlns="http://www.w3.org/2000/svg" xmlns:xlink="http://www.w3.org/1999/xlink" width="580" height="396"><defs/><g><text fill="#eeeeee" stroke="none" font-family="Arial" font-size="24px" font-style="normal" font-weight="normal" text-decoration="none" x="0" y="0">UNREGISTERED</text><text fill="#eeeeee" stroke="none" font-family="Arial" font-size="24px" font-style="normal" font-weight="normal" text-decoration="none" x="0" y="30">UNREGISTERED</text><text fill="#eeeeee" stroke="none" font-family="Arial" font-size="24px" font-style="normal" font-weight="normal" text-decoration="none" x="0" y="60">UNREGISTERED</text><text fill="#eeeeee" stroke="none" font-family="Arial" font-size="24px" font-style="normal" font-weight="normal" text-decoration="none" x="0" y="90">UNREGISTERED</text><text fill="#eeeeee" stroke="none" font-family="Arial" font-size="24px" font-style="normal" font-weight="normal" text-decoration="none" x="0" y="120">UNREGISTERED</text><text fill="#eeeeee" stroke="none" font-family="Arial" font-size="24px" font-style="normal" font-weight="normal" text-decoration="none" x="0" y="150">UNREGISTERED</text><text fill="#eeeeee" stroke="none" font-family="Arial" font-size="24px" font-style="normal" font-weight="normal" text-decoration="none" x="0" y="180">UNREGISTERED</text><text fill="#eeeeee" stroke="none" font-family="Arial" font-size="24px" font-style="normal" font-weight="normal" text-decoration="none" x="0" y="210">UNREGISTERED</text><text fill="#eeeeee" stroke="none" font-family="Arial" font-size="24px" font-style="normal" font-weight="normal" text-decoration="none" x="0" y="240">UNREGISTERED</text><text fill="#eeeeee" stroke="none" font-family="Arial" font-size="24px" font-style="normal" font-weight="normal" text-decoration="none" x="0" y="270">UNREGISTERED</text><text fill="#eeeeee" stroke="none" font-family="Arial" font-size="24px" font-style="normal" font-weight="normal" text-decoration="none" x="0" y="300">UNREGISTERED</text><text fill="#eeeeee" stroke="none" font-family="Arial" font-size="24px" font-style="normal" font-weight="normal" text-decoration="none" x="0" y="330">UNREGISTERED</text><text fill="#eeeeee" stroke="none" font-family="Arial" font-size="24px" font-style="normal" font-weight="normal" text-decoration="none" x="0" y="360">UNREGISTERED</text><text fill="#eeeeee" stroke="none" font-family="Arial" font-size="24px" font-style="normal" font-weight="normal" text-decoration="none" x="0" y="390">UNREGISTERED</text><text fill="#eeeeee" stroke="none" font-family="Arial" font-size="24px" font-style="normal" font-weight="normal" text-decoration="none" x="200" y="0">UNREGISTERED</text><text fill="#eeeeee" stroke="none" font-family="Arial" font-size="24px" font-style="normal" font-weight="normal" text-decoration="none" x="200" y="30">UNREGISTERED</text><text fill="#eeeeee" stroke="none" font-family="Arial" font-size="24px" font-style="normal" font-weight="normal" text-decoration="none" x="200" y="60">UNREGISTERED</text><text fill="#eeeeee" stroke="none" font-family="Arial" font-size="24px" font-style="normal" font-weight="normal" text-decoration="none" x="200" y="90">UNREGISTERED</text><text fill="#eeeeee" stroke="none" font-family="Arial" font-size="24px" font-style="normal" font-weight="normal" text-decoration="none" x="200" y="120">UNREGISTERED</text><text fill="#eeeeee" stroke="none" font-family="Arial" font-size="24px" font-style="normal" font-weight="normal" text-decoration="none" x="200" y="150">UNREGISTERED</text><text fill="#eeeeee" stroke="none" font-family="Arial" font-size="24px" font-style="normal" font-weight="normal" text-decoration="none" x="200" y="180">UNREGISTERED</text><text fill="#eeeeee" stroke="none" font-family="Arial" font-size="24px" font-style="normal" font-weight="normal" text-decoration="none" x="200" y="210">UNREGISTERED</text><text fill="#eeeeee" stroke="none" font-family="Arial" font-size="24px" font-style="normal" font-weight="normal" text-decoration="none" x="200" y="240">UNREGISTERED</text><text fill="#eeeeee" stroke="none" font-family="Arial" font-size="24px" font-style="normal" font-weight="normal" text-decoration="none" x="200" y="270">UNREGISTERED</text><text fill="#eeeeee" stroke="none" font-family="Arial" font-size="24px" font-style="normal" font-weight="normal" text-decoration="none" x="200" y="300">UNREGISTERED</text><text fill="#eeeeee" stroke="none" font-family="Arial" font-size="24px" font-style="normal" font-weight="normal" text-decoration="none" x="200" y="330">UNREGISTERED</text><text fill="#eeeeee" stroke="none" font-family="Arial" font-size="24px" font-style="normal" font-weight="normal" text-decoration="none" x="200" y="360">UNREGISTERED</text><text fill="#eeeeee" stroke="none" font-family="Arial" font-size="24px" font-style="normal" font-weight="normal" text-decoration="none" x="200" y="390">UNREGISTERED</text><text fill="#eeeeee" stroke="none" font-family="Arial" font-size="24px" font-style="normal" font-weight="normal" text-decoration="none" x="400" y="0">UNREGISTERED</text><text fill="#eeeeee" stroke="none" font-family="Arial" font-size="24px" font-style="normal" font-weight="normal" text-decoration="none" x="400" y="30">UNREGISTERED</text><text fill="#eeeeee" stroke="none" font-family="Arial" font-size="24px" font-style="normal" font-weight="normal" text-decoration="none" x="400" y="60">UNREGISTERED</text><text fill="#eeeeee" stroke="none" font-family="Arial" font-size="24px" font-style="normal" font-weight="normal" text-decoration="none" x="400" y="90">UNREGISTERED</text><text fill="#eeeeee" stroke="none" font-family="Arial" font-size="24px" font-style="normal" font-weight="normal" text-decoration="none" x="400" y="120">UNREGISTERED</text><text fill="#eeeeee" stroke="none" font-family="Arial" font-size="24px" font-style="normal" font-weight="normal" text-decoration="none" x="400" y="150">UNREGISTERED</text><text fill="#eeeeee" stroke="none" font-family="Arial" font-size="24px" font-style="normal" font-weight="normal" text-decoration="none" x="400" y="180">UNREGISTERED</text><text fill="#eeeeee" stroke="none" font-family="Arial" font-size="24px" font-style="normal" font-weight="normal" text-decoration="none" x="400" y="210">UNREGISTERED</text><text fill="#eeeeee" stroke="none" font-family="Arial" font-size="24px" font-style="normal" font-weight="normal" text-decoration="none" x="400" y="240">UNREGISTERED</text><text fill="#eeeeee" stroke="none" font-family="Arial" font-size="24px" font-style="normal" font-weight="normal" text-decoration="none" x="400" y="270">UNREGISTERED</text><text fill="#eeeeee" stroke="none" font-family="Arial" font-size="24px" font-style="normal" font-weight="normal" text-decoration="none" x="400" y="300">UNREGISTERED</text><text fill="#eeeeee" stroke="none" font-family="Arial" font-size="24px" font-style="normal" font-weight="normal" text-decoration="none" x="400" y="330">UNREGISTERED</text><text fill="#eeeeee" stroke="none" font-family="Arial" font-size="24px" font-style="normal" font-weight="normal" text-decoration="none" x="400" y="360">UNREGISTERED</text><text fill="#eeeeee" stroke="none" font-family="Arial" font-size="24px" font-style="normal" font-weight="normal" text-decoration="none" x="400" y="390">UNREGISTERED</text><g transform="translate(-174,-214) scale(1,1)"><rect fill="#C0C0C0" stroke="none" x="351" y="231" width="400" height="376" opacity="0.2"/></g><g transform="translate(-174,-214) scale(1,1)"><rect fill="#ffffff" stroke="none" x="344" y="224" width="400" height="376"/></g><g transform="translate(-174,-214) scale(1,1)"><path fill="none" stroke="#000000" d="M 344 224 L 744 224 L 744 600 L 344 600 L 344 224 Z Z" stroke-miterlimit="10"/></g><g transform="translate(-174,-214) scale(1,1)"><g><path fill="none" stroke="none"/><text fill="#000000" stroke="none" font-family="Arial" font-size="13px" font-style="normal" font-weight="bold" text-decoration="none" x="496.675048828125" y="243.5">Jouer Javsmash</text></g></g><g transform="translate(-174,-214) scale(1,1)"><path fill="#ffffff" stroke="none" d="M 211.30254545454545 357.93 C 211.30254545454545 350.788957536 216.98738885585453 345 224 345 C 231.01261114414547 345 236.69745454545455 350.788957536 236.69745454545455 357.93 C 236.69745454545455 365.071042464 231.01261114414547 370.86 224 370.86 C 216.98738885585453 370.86 211.30254545454545 365.071042464 211.30254545454545 357.93 Z"/></g><g transform="translate(-174,-214) scale(1,1)"><path fill="none" stroke="#000000" d="M 211.30254545454545 357.93 C 211.30254545454545 350.788957536 216.98738885585453 345 224 345 C 231.01261114414547 345 236.69745454545455 350.788957536 236.69745454545455 357.93 C 236.69745454545455 365.071042464 231.01261114414547 370.86 224 370.86 C 216.98738885585453 370.86 211.30254545454545 365.071042464 211.30254545454545 357.93 Z" stroke-miterlimit="10"/></g><g transform="translate(-174,-214) scale(1,1)"><path fill="none" stroke="#000000" d="M 224 370.86 L 224 396.14" stroke-miterlimit="10"/></g><g transform="translate(-174,-214) scale(1,1)"><path fill="none" stroke="#000000" d="M 210.55563636363635 380.34000000000003 L 237.44436363636365 380.34000000000003" stroke-miterlimit="10"/></g><g transform="translate(-174,-214) scale(1,1)"><path fill="none" stroke="#000000" d="M 224 396.14 L 205.3272727272727 422" stroke-miterlimit="10"/></g><g transform="translate(-174,-214) scale(1,1)"><path fill="none" stroke="#000000" d="M 224 396.14 L 242.6727272727273 422" stroke-miterlimit="10"/></g><g transform="translate(-174,-214) scale(1,1)"><g><path fill="none" stroke="none"/><text fill="#000000" stroke="none" font-family="Arial" font-size="13px" font-style="normal" font-weight="bold" text-decoration="none" x="204.12548828125" y="442.5">Joueur</text></g></g><g transform="translate(-174,-214) scale(1,1)"><path fill="#C0C0C0" stroke="none" d="M 463 363 C 463 347.5360256 500.6080768 335 547 335 C 593.3919232 335 631 347.5360256 631 363 C 631 378.4639744 593.3919232 391 547 391 C 500.6080768 391 463 378.4639744 463 363 Z" opacity="0.2"/></g><g transform="translate(-174,-214) scale(1,1)"><path fill="#ffffff" stroke="none" d="M 456 356 C 456 340.5360256 493.6080768 328 540 328 C 586.3919232 328 624 340.5360256 624 356 C 624 371.4639744 586.3919232 384 540 384 C 493.6080768 384 456 371.4639744 456 356 Z"/></g><g transform="translate(-174,-214) scale(1,1)"><path fill="none" stroke="#000000" d="M 456 356 C 456 340.5360256 493.6080768 328 540 328 C 586.3919232 328 624 340.5360256 624 356 C 624 371.4639744 586.3919232 384 540 384 C 493.6080768 384 456 371.4639744 456 356 Z" stroke-miterlimit="10"/></g><g transform="translate(-174,-214) scale(1,1)"><g><path fill="none" stroke="none"/><text fill="#000000" stroke="none" font-family="Arial" font-size="13px" font-style="normal" font-weight="bold" text-decoration="none" x="520.84912109375" y="363">Sauter</text></g></g><g transform="translate(-174,-214) scale(1,1)"><path fill="#C0C0C0" stroke="none" d="M 463 491 C 463 475.5360256 499.2649312 463 544 463 C 588.7350688 463 625 475.5360256 625 491 C 625 506.4639744 588.7350688 519 544 519 C 499.2649312 519 463 506.4639744 463 491 Z" opacity="0.2"/></g><g transform="translate(-174,-214) scale(1,1)"><path fill="#ffffff" stroke="none" d="M 456 484 C 456 468.5360256 492.2649312 456 537 456 C 581.7350688 456 618 468.5360256 618 484 C 618 499.4639744 581.7350688 512 537 512 C 492.2649312 512 456 499.4639744 456 484 Z"/></g><g transform="translate(-174,-214) scale(1,1)"><path fill="none" stroke="#000000" d="M 456 484 C 456 468.5360256 492.2649312 456 537 456 C 581.7350688 456 618 468.5360256 618 484 C 618 499.4639744 581.7350688 512 537 512 C 492.2649312 512 456 499.4639744 456 484 Z" stroke-miterlimit="10"/></g><g transform="translate(-174,-214) scale(1,1)"><g><path fill="none" stroke="none"/><text fill="#000000" stroke="none" font-family="Arial" font-size="13px" font-style="normal" font-weight="bold" text-decoration="none" x="486.774169921875" y="491">Taper à main nue</text></g></g><g transform="translate(-174,-214) scale(1,1)"><path fill="none" stroke="#000000" d="M 265 408 L 455 461" stroke-miterlimit="10"/></g><g transform="translate(-174,-214) scale(1,1)"><path fill="none" stroke="#000000" d="M 444.0799854324088 462.3241154948103 L 455 461 L 446.34209260314583 454.21467469405496" stroke-miterlimit="10"/></g><g transform="translate(-174,-214) scale(1,1)"><path fill="none" stroke="#000000" d="M 265 391 L 455 367" stroke-miterlimit="10"/></g><g transform="translate(-174,-214) scale(1,1)"><path fill="none" stroke="#000000" d="M 445.4449804447691 372.4499175497575 L 455 367 L 444.38990722178505 364.09725453446725" stroke-miterlimit="10"/></g></g></svg>